# xmcd
#
# Track frame offsets:
#	150
#	16560
#	32229
#	45666
#	62930
#	81137
#	96592
#	112962
#	131222
#	149704
#	164441
#	179292
#
# Disc length: 2602 seconds
#
# Revision: 1
# Processed by: cddbd v1.5.2PL0 Copyright (c) Steve Scherf et al.
# Submitted via: audiograbber 1.83.01
#
DISCID=a90a280c
DTITLE=Various Artist - CDX 561
DYEAR=2012
DGENRE=Country
TTITLE0=LeAnn Rimes - Borrowed
TTITLE1=Charlie Worsham - Could It Be
TTITLE2=Miranda Lambert - Mama's Broken Heart (Radio Edit)
TTITLE3=Kenny Davin Fine - Bird In The Hand
TTITLE4=Doug Newnum SOS Renewal - Giving My Best
TTITLE5=Hannah Bethel - No Where Left To Roam
TTITLE6=Leah Seawright - Set It On Fire
TTITLE7=Jerry D - Starting Over With You
TTITLE8=Susan Toney - The Trail Of Light And Dark
TTITLE9=Zach Harmon - Those Stars Still Shine
TTITLE10=Jordan Anderson - Toxic
TTITLE11=Jacob Martin Band - Wraparound Porch
EXTD=
EXTT0=
EXTT1=
EXTT2=
EXTT3=
EXTT4=
EXTT5=
EXTT6=
EXTT7=
EXTT8=
EXTT9=
EXTT10=
EXTT11=
PLAYORDER=
